<?xml version="1.0" encoding="utf-8"?>
<!-- Generator: Adobe Illustrator 23.0.3, SVG Export Plug-In . SVG Version: 6.00 Build 0)  -->
<svg version="1.1" id="Layer_1" xmlns="http://www.w3.org/2000/svg" xmlns:xlink="http://www.w3.org/1999/xlink" x="0px" y="0px"
	 viewBox="0 0 80 80" style="enable-background:new 0 0 80 80;" xml:space="preserve">
<style type="text/css">
	.st0{fill:url(#SVGID_1_);}
	.st1{fill:url(#SVGID_2_);}
	.st2{fill:url(#SVGID_3_);}
	.st3{fill:url(#SVGID_4_);}
	.st4{fill:url(#SVGID_5_);}
	.st5{fill:url(#SVGID_6_);}
	.st6{fill:url(#SVGID_7_);}
	.st7{fill:url(#SVGID_8_);}
	.st8{fill:url(#SVGID_9_);}
	.st9{fill:url(#SVGID_10_);}
	.st10{fill:url(#SVGID_11_);}
	.st11{fill:url(#SVGID_12_);}
	.st12{fill:url(#SVGID_13_);}
	.st13{fill:url(#SVGID_14_);}
	.st14{fill:url(#SVGID_15_);}
	.st15{fill:url(#SVGID_16_);}
	.st16{fill:url(#SVGID_17_);}
	.st17{fill:url(#SVGID_18_);}
	.st18{fill:url(#SVGID_19_);}
	.st19{fill:url(#SVGID_20_);}
	.st20{fill:url(#SVGID_21_);}
	.st21{fill:url(#SVGID_22_);}
	.st22{fill:url(#SVGID_23_);}
	.st23{fill:url(#SVGID_24_);}
	.st24{fill:url(#SVGID_25_);}
	.st25{fill:url(#SVGID_26_);}
	.st26{fill:url(#SVGID_27_);}
	.st27{fill:url(#SVGID_28_);}
	.st28{fill:url(#SVGID_29_);}
	.st29{fill:url(#SVGID_30_);}
	.st30{fill:url(#SVGID_31_);}
	.st31{fill:url(#SVGID_32_);}
	.st32{fill:url(#SVGID_33_);}
	.st33{fill:url(#SVGID_34_);}
	.st34{fill:url(#SVGID_35_);}
	.st35{fill:url(#SVGID_36_);}
	.st36{fill:url(#SVGID_37_);}
	.st37{fill:url(#SVGID_38_);}
</style>
<linearGradient id="SVGID_1_" gradientUnits="userSpaceOnUse" x1="12.8896" y1="22.3525" x2="59.0923" y2="49.0276">
	<stop  offset="0" style="stop-color:#fb2f2f"/>
	<stop  offset="1" style="stop-color:#fb2f2f"/>
</linearGradient>
<path class="st0" d="M40,2.1c-14.7,0-26.7,12-26.7,26.7c0,5,1.4,9.8,4,14l21.2,34.1c0.4,0.7,1.1,1.1,1.9,1.1c0,0,0,0,0,0
	c0.8,0,1.5-0.4,1.9-1.1l20.6-34.5c2.5-4.1,3.8-8.8,3.8-13.7C66.7,14,54.7,2.1,40,2.1z M59.1,40.1L40.3,71.4l-19.3-31
	c-2.2-3.5-3.3-7.5-3.3-11.7c0-12.3,10-22.3,22.3-22.3s22.2,10,22.2,22.3C62.2,32.8,61.1,36.7,59.1,40.1z M40,15.4
	c-7.4,0-13.3,6-13.3,13.3c0,7.3,5.9,13.3,13.3,13.3c7.5,0,13.3-6.1,13.3-13.3C53.3,21.4,47.4,15.4,40,15.4z M40,37.7
	c-4.9,0-8.9-4-8.9-8.9c0-4.9,4-8.9,8.9-8.9s8.9,4,8.9,8.9C48.9,33.6,45,37.7,40,37.7z"/>
</svg>
