<?xml version="1.0" encoding="utf-8"?>
<svg version="1.1" id="Layer_1" xmlns="http://www.w3.org/2000/svg" xmlns:xlink="http://www.w3.org/1999/xlink" x="0px" y="0px"
	 viewBox="0 0 1630 1668.62" enable-background="new 0 0 1630 1668.62" xml:space="preserve">
<g>
	<polygon points="1150.881,173.991 999.135,34.31 857.023,183.624 1006.384,320.919 	"/>
	<path d="M720.549,225.612c87.265,430.978,568.316,324.264,733.823,138.656c-2.432,0-125.23-161.378-127.663-163.763
		c-337.428,305.599-512.872,117.555-582.428-4.401C728.535,206.024,723.266,211.369,720.549,225.612z"/>
	<path d="M575.64,1011.474c0.175-15.448,0.815-30.932,0.037-46.339c-0.653-12.932,3.245-24.387,8.833-35.381
		c7.517-14.789,9.323-29.835,5.109-45.86c-8.759-33.314,3.109-61.387,22.96-86.927c-120.335,29.882-235.867-9.809-232.442,0.839
		l81.881,255.325c42.924-16.445,80.739-24.948,113.68-27.094C575.747,1021.188,575.585,1016.306,575.64,1011.474z"/>
	<path d="M642.029,502.636c-0.976-8.493-0.925-16.966-1.038-25.439c-0.146-10.896-0.809-21.611-5.646-31.601
		c-1.981-4.092-1.586-8.32-0.99-12.505c2.664-18.717,4.377-37.529,5.177-56.39c-114.484-35.618-275.785-12.849-466.554,115.23
		l110.781,199.911c85.124-39.343,140.92-118.315,255.325-118.029c49.394,0.135,86.494,7.202,113.525,18.747
		c-0.954-8.154-1.655-16.353-2.082-24.593C649.379,545.881,644.536,524.449,642.029,502.636z"/>
	<path d="M829.527,1037.1c-6.552,2.172-13.601,3.207-21.313,2.618c-4.068-0.311-7.322-1.043-10.31-4.04
		c-6.918-6.937-10.058-16.337-16.068-23.866c-2.128-2.666-0.741-5.965,0.788-8.742c3.194-5.803,1.579-10.143-3.518-14.005
		c-3.044-2.306-5.627-5.262-8.226-8.101c-2.503-2.734-4.568-5.567,0.28-8.305c2.004-1.132,1.931-3.361,0.75-5.055
		c-1.444-2.07-3.782-2.815-6.158-1.942c-4.417,1.622-8.684,4.282-10.947,8.127c-13.67,23.224-28.418,46.224-26.06,74.998
		c1.39,16.965,4.459,33.669,11.275,49.346c5.71,13.133,14.75,23.413,28.474,28.901c15.94,6.373,29.105,17.364,42.789,27.169
		c12.246,8.775,16.873,23.586,21.503,37.359c8.209,24.417,14.955,49.413,30.41,70.636c9.59,13.168,21.154,24.191,33.807,34.024
		C896.998,1225.072,877.954,1139.532,829.527,1037.1z"/>
	<path d="M721.98,536.538c0.781,4.561,2.13,9.072,2.438,13.659c1.451,21.656,11.816,39.696,23.068,57.327
		c5.17,8.101,12.051,7.651,15.129-1.416c3.444-10.147,6.527-20.552,6.083-31.645c-0.529-13.198,2.94-16.077,16.354-14.45
		c3.575,0.434,7.176,0.614,9.907-1.892c4.471-4.104,8.683-5.598,14.334-1.844c2.756,1.83,5.29-0.892,6.307-3.388
		c0.128-0.314,0.266-0.602,0.404-0.891c-14.902-53.279-47.323-100.625-94.58-134.785c-0.415,13.714-1.69,27.437-4.139,41.186
		C712.617,484.613,717.553,510.656,721.98,536.538z"/>
	<polygon points="283.758,691.842 283.758,691.842 283.758,691.842 	"/>
	<path d="M282.464,1496.248c-1.552-37.366-9.235-73.986-13.739-110.994c-1.345-11.049-2.828-22.163-3.848-33.295
		C144.128,1269.895,66.571,1106.416,38.066,882.12c-30.48,367.302,96.81,563.945,243.601,662.898
		C282.605,1528.758,283.14,1512.527,282.464,1496.248z"/>
	<path d="M761.227,1364.341c-6.859-5.097-12.705-11.256-18.682-17.273c-10.703-10.775-23.439-18.769-36.054-26.982
		c-0.69-0.449-1.386-0.805-2.087-1.093c-27.218,35.59-65.833,63.787-114.723,76.162c-78.784,19.948-150.073,21.404-213.386,6.125
		c-0.201,6.288-0.642,12.589-1.373,18.902c-2.135,18.436-8.183,35.868-11.174,54.024c-5.524,33.527-8.866,67.092-4.356,101.064
		c0.61,4.598,0.95,9.168,1.683,13.692c123.19,54.856,242.915,52.083,281.588,32.62c21.812-4.466,163.944-50.483,225.739-186.545
		c-16.934-10.113-33.576-20.691-50.244-31.244C798.65,1391.44,779.77,1378.121,761.227,1364.341z"/>
	<path d="M1596.484,1079.646c-10.444-641.508-459.242-541.171-522.668-464.869c-37.679,34.14-65.762,70.079-88.448,105.369
		c-2.353,9.897-4.156,19.892-5.354,29.841c-2.026,16.817-5.525,33.341-7.559,50.108c-0.393,3.24,0.92,6.137,2.017,8.947
		c2.188,5.607,3.351,10.999,0.31,16.693c-1.093,2.046-1.488,4.523-0.348,6.719c4.713,9.083-0.689,16.08-5.965,21.722
		c-5.528,5.912-7.678,12.827-8.295,19.839c-1.483,16.862-8.992,31.723-14.696,47.066c-3.024,8.135-4.531,15.579-1.833,23.438
		c2.211,6.439,1.772,11.236-4.506,14.711c-13.296,7.359-20.827,21.353-33.865,29.189c-6.806,4.09-15.53,5.314-20.225,12.769
		c-0.177,0.282-0.689,0.556-1.005,0.516c-12.345-1.546-16.04,9.039-23.225,15.493c-6.03,5.416-12.342,10.451-19.173,14.395
		c226.226,32.958,279.923-96.46,297.169-130.207c17.692-34.526,21.721-105.69,113.213-171.012
		c178.308-127.306,247.342,79.79,245.528,222.958c-0.739,58.324,2.49,202.184-181.608,288.222
		c-121.613,55.66-276.683,47.239-316.813-161.908c-32.654,155.197,0.238,269.24,64.421,339.308c2.945,0.313,5.89,0.64,8.81,1.096
		c30.012,4.687,60.385,7.115,89.932,14.78c32.72,8.489,61.026,25.483,88.402,44.52c9.932,6.906,19.877,13.797,29.84,20.66
		C1430.619,1485.572,1584.327,1349.456,1596.484,1079.646z"/>
	<path d="M1063.556,1418.954c-9.683-1.029-19.379-1.898-28.269-6.645c-32.021-17.096-60.763-38.37-82.151-68.082
		c-10.418-14.472-23.544-25.459-38.081-35.108c-6.191-4.109-12.235-8.378-18.051-12.897c0.005,54.271-11.054,100.176-28.602,138.813
		c13.462,8.039,27.108,15.785,41.101,22.987c15.645,8.053,33.206,13.303,46.6,24.834c14.547,12.523,30.922,16.408,49.101,16.587
		c19.658,0.194,38.941,4.379,57.964,8.122c35.781,7.039,70.814,17.665,104.104,32.897c24.742,11.321,51.706,16.343,76.28,27.999
		c2.337,1.108,5.248,1.249,7.913,1.369c5.857,0.264,11.426,1.805,16.985,3.404c13.771,3.961,26.147,10.135,37.373,19.495
		c2.491,2.077,5.74,4.823,6.378,8.209c0.607,3.222-2.435,6.663-0.969,9.698c0.772,1.598,2.647,2.279,4.35,2.78
		c16.678,4.899,33.838,6.075,51.107,6.974c18.762,0.972,37.552,1.084,56.332,1.452c4.158,0.082,8.853,0.15,12.661-1.785
		c3.965-2.015,5.729-6.255,8.144-9.793c3.311-4.85,5.798-10.15,6.058-16.106c0.226-5.216-0.985-8.686-5.925-11.221
		c-12.417-6.372-25.289-11.425-38.924-14.315c-5.728-1.214-11.145-2.908-16.311-5.659c-7.722-4.113-15.018-9.188-24.618-8.406
		c-3.792,0.309-6.932-3.07-10.373-4.775c-10.799-5.351-19.615-13.564-29.548-20.165c-14.641-9.729-29.166-19.634-43.645-29.607
		C1199.548,1507.801,1119.616,1480.154,1063.556,1418.954z"/>
	<path d="M652.608,592.559c3.436,29.383,10.353,58.149,21.382,85.857c4.775,11.997,7.657,23.619,7.712,36.663
		c0.03,7.187-2.157,11.552-6.582,15.884c-21.467,21.018-43.426,41.621-62.008,65.314c-0.18,0.229-0.354,0.46-0.533,0.69
		c1.999-0.496,4-1.01,6.001-1.545C699.201,773.846,768.463,642.04,652.608,592.559z"/>
	<path d="M717.93,351.175c-2.614-22.203-6.494-44.295-3.693-66.859c1.702-13.707,2.954-27.49,4.169-41.262
		c0.627-7.103,1.249-12.752,2.143-17.442C713.824,192.4,709.433,156,707.71,116.192l0,0c0,0,11.294,35.593,36.571,79.912
		c2.349-1.48,4.92-3.057,7.763-4.786c4.623-2.812,9.212-5.614,13.269-9.258c11.787-10.586,23.753-20.912,39.008-26.429
		c3.348-1.211,6.583-3.159,5.819-7.487c-0.753-4.269-3.781-6.7-8.005-7.214c-7.808-0.951-15.39-0.312-22.49,3.597
		c-5.07,2.791-10.271,5.347-15.452,7.93c-3.115,1.553-6.598,3.619-9.766,1.115c-3.556-2.809-5.081-7.308-3.485-11.513
		c3.67-9.673,4.908-20.233,11.371-28.924c8.596-11.558,13.816-24.9,18.492-38.396c1.756-5.067,3.605-10.243,3.321-15.774
		c-0.401-7.82-3.756-11.632-11.491-10.73c-5.381,0.628-6.196-1.57-7.827-5.635c-3.77-9.401-8.053-10.47-16.856-4.904
		c-2.312,1.462-3.796,2.853-7.114,1.599c-10.197-3.855-12.182-3.269-16.881,6.585c-7.467,15.657-14.862,31.409-18.677,48.505
		c-0.672,3.01-1.387,6.02-2.311,8.959c-0.58,1.843-1.737,3.813-3.851,3.744c-2.659-0.087-3.811-2.171-4.23-4.688
		c-1.724-10.354-2.676-20.698,0.104-31.035c0.901-3.353,1.986-6.678,1.649-10.232c-0.765-8.073-5.618-10.418-12.912-6.717
		c-3.996,2.028-5.263,5.29-6.12,9.177c-2.858,12.961-3.334,26.04-1.544,39.143c0.794,5.811,1.444,11.542-0.238,17.213
		c-5.989,20.197-7.61,40.769-7.1,61.797c0.257,10.616,1.915,21.621-2.197,32.062c-2.707,6.874-3.781,14.109-4.974,21.358
		c-3.251,19.759-6.683,39.49-10.229,59.199c-4.434,24.642-10.788,48.943-11.507,74.208c-0.077,2.71-0.173,5.419-0.288,8.127
		c30.799,9.582,58.208,23.391,81.892,40.511C722.089,395.202,720.524,373.213,717.93,351.175z"/>
	<path d="M280.914,1557.104c-1.833,27.3-17.289,44.344-44.803,46.198c-13.311,0.897-27.996,4.841-41.24,2.926
		c-3.06-0.443-6.231-0.915-9.202-0.056c-2.97,0.86-5.682,3.47-5.575,6.561c0.072,2.065,1.339,3.883,2.67,5.464
		c7.794,9.256,20.056,15.564,32.254,15.527c44.485-0.126,88.972,0.159,133.454,0.579c4.665,0.044,9.706-0.028,13.44-2.824
		c3.255-2.437,4.88-6.577,5.187-10.632c0.374-4.937,0.057-14.281-2.13-18.791c-2.088-4.307-3.179-8.678-3.894-13.095
		c-26.568-11.831-53.296-26.34-79.408-43.942C281.435,1549.045,281.184,1553.072,280.914,1557.104z"/>
	<path d="M829.527,1037.1c4.233-1.403,8.26-3.279,12.119-5.507c-5.226-0.761-10.542-1.607-15.954-2.544
		C826.997,1031.748,828.262,1034.424,829.527,1037.1z"/>
	<path d="M372.694,1344.118c-2.42-17.739-7.954-35.167-13.477-52.447c-5.208-16.292-0.51-20.163,12.056-20.233
		c2.98-0.017,5.88-0.653,9.032-0.369c15.021,1.356,29.354,5.7,43.883,9.263c22.895,5.615,43.985,16.192,66.148,23.776
		c40.201,13.757,81.968,17.006,124.094,17.103c26.628,0.062,53.212-1.267,79.776-3.084c3.432-0.235,6.869-0.503,10.198,0.866
		c87.451-114.352,57.147-305.065-128.706-292.956c-0.045,4.446-0.266,8.865-1.016,13.186c-5.743,33.113-5.785,66.762-10.062,100.004
		c-0.831,6.46-2.286,9.437-9.316,10.219c-16.584,1.845-33.239,1.753-49.723,0.918c-32.815-1.663-65.825-2.783-98.121,2.022
		c-29.411,4.376-59.649,1.628-88.548,13.212c-15.222,6.101-31.201,10.562-45.972,18.234c-10.904,5.663-14.721,14.618-15.302,26.29
		c-1.132,22.743,4.966,45.151,2.765,67.914c-0.482,4.988,2.788,10.633,3.611,15.549c1.058,6.322,0.73,12.806,0.199,19.162
		c-1.091,13.045-0.535,26.141,0.663,39.212c33.798,22.97,70.98,39.561,111.418,49.32
		C376.909,1382.089,375.272,1363.019,372.694,1344.118z"/>
	<path d="M637.846,908.635l132.479,52.982c122.718-5.031,136.545-119.36,215.042-241.47c1.751-7.366,3.799-14.68,6.176-21.874
		c0.839-2.542,1.404-5.245,1.617-7.912c2.66-33.19-0.389-53.511-13.141-83.395c-2.345-5.496-4.53-10.1-1.668-16.283
		c2.122-4.584-0.676-8.308-5.782-9.222c-3.008-0.538-6.225-0.855-9.212-0.392c-9.276,1.438-17.493-1.538-25.522-5.472
		c-7.624-3.736-15.155-7.66-22.74-11.474c-7.948-3.997-15.842-8.027-25.289-6.221c-3.563,0.681-7.081-0.727-9.84-2.771
		c-7.417-5.495-16.047-9.103-22.732-15.827c-6.531-6.568-10.646-5.906-15.338,2.372c-2.99,5.274-6.186,7.354-12.079,5.451
		c-5.882-1.899-10.897-1.272-13.814,4.871C848.359,667.675,798.134,811.31,637.846,908.635z"/>
	<path d="M1310.565,1609.874c-0.106-0.139-0.211-0.279-0.317-0.418C1309.714,1610.295,1309.822,1610.432,1310.565,1609.874z"/>
	<path d="M1310.587,1609.859c-0.008,0.006-0.014,0.009-0.021,0.015c0.068,0.09,0.136,0.179,0.203,0.269L1310.587,1609.859z"/>
</g>
</svg>
